<svg width="1161" height="88" viewBox="0 0 1161 88" fill="none" xmlns="http://www.w3.org/2000/svg">
<path d="M46 28.5C46 34.4674 44 40.5 41 44.4099C37 48.5 37 51 25.5222 51C14.0444 51 14 49.1151 9.61232 44.4099C5.22463 39.7047 5 34.9674 5 29H9C9 37.5 12.4388 41.5834 12.4388 41.5834C12.4388 41.5834 15.5222 47.0027 25.5222 47.0027C35.5222 47.0027 38 41.5834 38 41.5834C38 41.5834 41.4321 35.5 41.4321 28.5H46Z" fill="#2F2105"/>
<path d="M41.4596 36.5273C41.8656 37.8568 42.6895 39.02 43.8091 39.8441C44.9286 40.6682 46.2841 41.1094 47.6742 41.102C49.0643 41.0946 50.415 40.6391 51.5258 39.8032C52.6365 38.9673 53.4481 37.7954 53.84 36.4616C54.2319 35.1279 54.1832 33.7033 53.7012 32.3993C53.2192 31.0954 52.3296 29.9817 51.1643 29.2235C49.9991 28.4653 48.6205 28.1031 47.2331 28.1906C45.8457 28.2781 44.5235 28.8107 43.4628 29.7093L45.6146 32.2492C46.1289 31.8135 46.77 31.5553 47.4427 31.5129C48.1154 31.4704 48.7838 31.6461 49.3488 32.0137C49.9138 32.3813 50.3452 32.9213 50.5789 33.5535C50.8126 34.1858 50.8362 34.8765 50.6462 35.5232C50.4561 36.1699 50.0626 36.7381 49.5241 37.1434C48.9855 37.5488 48.3306 37.7696 47.6566 37.7732C46.9825 37.7768 46.3253 37.5629 45.7825 37.1633C45.2396 36.7637 44.8401 36.1997 44.6433 35.5551L41.4596 36.5273Z" fill="#2F2105"/>
<path d="M39 28.595C39 32.9458 37.525 37.1185 34.8995 40.1951C32.274 43.2716 28.713 45 25 45C21.287 45 17.726 43.2716 15.1005 40.1951C12.475 37.1185 11 32.9458 11 28.595C11 28.595 19 32.1836 25 28.595C31 25.0063 39 28.595 39 28.595Z" fill="#FF912B"/>
<path d="M43.7553 54H7.24468C6.55726 54 6 54.6716 6 55.5C6 56.3284 6.55726 57 7.24468 57H43.7553C44.4427 57 45 56.3284 45 55.5C45 54.6716 44.4427 54 43.7553 54Z" fill="#2F2105"/>
<path d="M67.0838 48.3049C65.6391 48.3049 64.3826 48.0425 63.3143 47.5175C62.2459 46.9804 61.4265 46.2235 60.8559 45.2468C60.2853 44.2702 60 43.1348 60 41.8408C60 40.0462 60.3339 38.453 61.0016 37.0613C61.6814 35.6696 62.598 34.5953 63.7513 33.8384C64.9047 33.0693 66.1855 32.6847 67.5937 32.6847C68.9049 32.6847 69.9004 33.0265 70.5802 33.7102C71.2601 34.3816 71.6 35.2728 71.6 36.3838C71.6 37.1285 71.4665 37.7266 71.1994 38.1783C70.9444 38.63 70.5742 38.8559 70.0886 38.8559C69.7486 38.8559 69.4815 38.7765 69.2873 38.6178C69.0931 38.4591 68.9959 38.2272 68.9959 37.922C68.9959 37.8121 69.0202 37.6107 69.0688 37.3177C69.1416 36.9514 69.178 36.6584 69.178 36.4387C69.178 35.3278 68.5892 34.7723 67.4116 34.7723C66.6104 34.7723 65.8455 35.0348 65.1171 35.5597C64.3887 36.0847 63.7999 36.8599 63.3507 37.8853C62.9015 38.8986 62.6769 40.1072 62.6769 41.5111C62.6769 42.9761 63.0836 44.1115 63.897 44.9172C64.7104 45.7107 65.9123 46.1075 67.5027 46.1075C68.2918 46.1075 69.087 46.0098 69.8882 45.8145C70.7016 45.607 71.6 45.2956 72.5834 44.8806C72.7655 44.8073 72.9172 44.7707 73.0386 44.7707C73.2329 44.7707 73.3786 44.8439 73.4757 44.9904C73.5728 45.1369 73.6214 45.3262 73.6214 45.5581C73.6214 46.3028 73.2207 46.8522 72.4195 47.2062C71.5575 47.5847 70.6591 47.8654 69.7243 48.0486C68.8017 48.2195 67.9215 48.3049 67.0838 48.3049ZM74.4326 48.3049C73.6799 48.3049 73.0789 48.0303 72.6298 47.4809C72.1806 46.9315 71.956 46.2113 71.956 45.3201C71.956 44.3434 72.1806 43.4217 72.6298 42.5549C73.0789 41.676 73.6738 40.974 74.4144 40.449C75.1671 39.9119 75.9623 39.6433 76.8 39.6433C77.0671 39.6433 77.2431 39.6982 77.3281 39.8081C77.4252 39.9058 77.5041 40.0889 77.5648 40.3575C77.8198 40.3087 78.0869 40.2842 78.3661 40.2842C78.961 40.2842 79.2584 40.4979 79.2584 40.9252C79.2584 41.1815 79.1673 41.7919 78.9852 42.7564C78.706 44.1603 78.5664 45.1369 78.5664 45.6863C78.5664 45.8694 78.6089 46.0159 78.6939 46.1258C78.791 46.2357 78.9124 46.2906 79.0581 46.2906C79.2887 46.2906 79.568 46.1441 79.8958 45.8511C80.2235 45.5459 80.6667 45.0576 81.2251 44.3861C81.3708 44.2152 81.5347 44.1298 81.7168 44.1298C81.8746 44.1298 81.996 44.203 82.081 44.3495C82.1781 44.496 82.2267 44.6974 82.2267 44.9538C82.2267 45.4421 82.1113 45.8206 81.8807 46.0892C81.3829 46.7118 80.8548 47.2367 80.2964 47.664C79.7379 48.0913 79.1977 48.3049 78.6757 48.3049C78.275 48.3049 77.9048 48.1706 77.5648 47.9021C77.237 47.6213 76.9882 47.2428 76.8182 46.7667C76.1869 47.7922 75.3917 48.3049 74.4326 48.3049ZM75.0882 46.4554C75.3553 46.4554 75.6102 46.2967 75.853 45.9793C76.0959 45.6619 76.2719 45.2407 76.3812 44.7158L77.0549 41.3463C76.545 41.3585 76.0716 41.5539 75.6345 41.9323C75.2096 42.2986 74.8697 42.7869 74.6147 43.3973C74.3598 44.0077 74.2323 44.6547 74.2323 45.3384C74.2323 45.7168 74.3052 45.9976 74.4508 46.1807C74.6087 46.3639 74.8211 46.4554 75.0882 46.4554ZM87.8347 43.086C88.1746 43.086 88.3446 43.3424 88.3446 43.8551C88.3446 44.8195 87.5919 45.3017 86.0865 45.3017C85.7952 45.3017 85.3763 45.2468 84.83 45.1369C84.9878 45.8938 85.1153 46.7362 85.2124 47.664C85.3217 48.5796 85.3763 49.3365 85.3763 49.9347C85.3763 51.2532 85.1639 52.2604 84.739 52.9562C84.314 53.6521 83.7556 54 83.0636 54C82.1895 54 81.5643 53.3774 81.1879 52.1322C80.8237 50.8869 80.6416 49.0069 80.6416 46.492C80.6416 44.1481 80.8905 41.7736 81.3882 39.3686C81.8981 36.9514 82.5901 34.9554 83.4642 33.3806C84.3505 31.7935 85.3217 31 86.3779 31C86.9485 31 87.3916 31.2564 87.7072 31.7691C88.035 32.2818 88.1989 32.9716 88.1989 33.8384C88.1989 36.7073 86.4932 39.8325 83.0818 43.2142C82.9604 44.4106 82.8997 45.4605 82.8997 46.3638C82.8997 47.6213 82.9422 48.9092 83.0272 50.2277C83.1122 51.5584 83.2518 52.2237 83.446 52.2237C83.8102 52.2237 83.9923 51.5889 83.9923 50.3193C83.9923 49.367 83.9256 48.4453 83.792 47.5541C83.6706 46.663 83.5007 45.7229 83.2821 44.7341C83.27 44.5754 83.3185 44.3739 83.4278 44.1298C83.5492 43.8856 83.6949 43.672 83.8649 43.4889C84.0348 43.3057 84.1866 43.2142 84.3201 43.2142C84.5629 43.2142 84.8543 43.2264 85.1942 43.2508C85.3035 43.263 85.431 43.2691 85.5766 43.2691C86.0622 43.2691 86.6025 43.2264 87.1974 43.1409C87.2945 43.1287 87.3977 43.1165 87.5069 43.1043C87.6162 43.0921 87.7255 43.086 87.8347 43.086ZM85.9955 32.8129C85.7769 32.8129 85.5038 33.1852 85.176 33.9299C84.8604 34.6746 84.5447 35.6635 84.2291 36.8965C83.9134 38.1173 83.6403 39.4114 83.4096 40.7787C84.3808 39.6677 85.1274 38.5141 85.6495 37.3177C86.1715 36.1091 86.4386 34.9798 86.4507 33.9299C86.4507 33.1852 86.299 32.8129 85.9955 32.8129ZM93.4901 44.6791C93.6479 44.6791 93.7693 44.7524 93.8543 44.8989C93.9514 45.0454 94 45.2468 94 45.5032C94 45.9427 93.8968 46.3211 93.6904 46.6385C93.3505 47.1635 92.9013 47.5725 92.3429 47.8654C91.7965 48.1584 91.141 48.3049 90.3761 48.3049C89.2107 48.3049 88.3062 47.957 87.6628 47.2611C87.0194 46.5531 86.6976 45.6009 86.6976 44.4045C86.6976 43.5621 86.8737 42.7808 87.2257 42.0605C87.5778 41.328 88.0634 40.7481 88.6826 40.3209C89.3139 39.8936 90.0241 39.6799 90.8132 39.6799C91.5173 39.6799 92.0818 39.8936 92.5067 40.3209C92.9317 40.7359 93.1441 41.3036 93.1441 42.0239C93.1441 42.8662 92.8406 43.5926 92.2336 44.203C91.6387 44.8012 90.6189 45.2773 89.1742 45.6314C89.4656 46.1929 89.9573 46.4737 90.6493 46.4737C91.147 46.4737 91.5537 46.3577 91.8694 46.1258C92.1972 45.8938 92.5735 45.5032 92.9984 44.9538C93.1441 44.7707 93.308 44.6791 93.4901 44.6791ZM90.5036 41.4745C90.0544 41.4745 89.672 41.737 89.3564 42.2619C89.0528 42.7869 88.9011 43.4217 88.9011 44.1664V44.203C89.6174 44.0321 90.1819 43.7757 90.5947 43.4339C91.0074 43.0921 91.2138 42.6953 91.2138 42.2436C91.2138 42.0117 91.147 41.8286 91.0135 41.6943C90.8921 41.5478 90.7221 41.4745 90.5036 41.4745Z" fill="#FF912B"/>
<path d="M105.365 48C103.742 48 102.442 47.6973 101.465 47.0919C100.488 46.4745 100 45.5361 100 44.277C100 43.611 100.116 43.1025 100.348 42.7514C100.58 42.4003 100.922 42.2247 101.373 42.2247C101.703 42.2247 101.972 42.3095 102.179 42.479C102.387 42.6485 102.49 42.8664 102.49 43.1328C102.49 43.375 102.472 43.5868 102.436 43.7684C102.436 43.8169 102.423 43.9016 102.399 44.0227C102.387 44.1438 102.381 44.2709 102.381 44.4041C102.381 44.9489 102.655 45.3545 103.205 45.6209C103.766 45.8872 104.548 46.0204 105.549 46.0204C106.586 46.0204 107.398 45.8388 107.984 45.4756C108.57 45.1003 108.863 44.5796 108.863 43.9137C108.863 43.5021 108.729 43.151 108.46 42.8604C108.192 42.5577 107.856 42.3095 107.453 42.1158C107.05 41.91 106.483 41.6617 105.75 41.3712C104.81 41.0079 104.041 40.6629 103.443 40.336C102.857 40.0091 102.35 39.5672 101.923 39.0102C101.508 38.4412 101.3 37.7389 101.3 36.9035C101.3 36.0318 101.532 35.2569 101.996 34.5789C102.472 33.9009 103.15 33.3742 104.029 32.9989C104.92 32.6235 105.964 32.4359 107.16 32.4359C108.051 32.4359 108.869 32.5691 109.614 32.8354C110.359 33.0897 110.951 33.4832 111.39 34.0159C111.842 34.5486 112.068 35.2024 112.068 35.9773C112.068 36.7401 111.952 37.3152 111.72 37.7026C111.488 38.09 111.146 38.2838 110.694 38.2838C110.377 38.2838 110.108 38.1869 109.889 37.9932C109.681 37.7995 109.577 37.5694 109.577 37.3031C109.577 37.073 109.596 36.8611 109.632 36.6674C109.669 36.3042 109.687 36.0742 109.687 35.9773C109.687 35.4688 109.437 35.0813 108.936 34.815C108.436 34.5486 107.813 34.4154 107.069 34.4154C106.019 34.4154 105.213 34.6092 104.651 34.9966C104.102 35.3719 103.827 35.9047 103.827 36.5948C103.827 37.0549 103.968 37.4484 104.248 37.7753C104.541 38.1022 104.902 38.3746 105.329 38.5925C105.756 38.8104 106.354 39.0708 107.123 39.3734C108.051 39.7488 108.796 40.0878 109.358 40.3905C109.919 40.6932 110.395 41.1048 110.786 41.6254C111.189 42.146 111.39 42.7877 111.39 43.5505C111.39 44.9792 110.841 46.081 109.742 46.8558C108.656 47.6186 107.197 48 105.365 48ZM120.942 43.8048C121.1 43.8048 121.223 43.8774 121.308 44.0227C121.406 44.168 121.455 44.3678 121.455 44.622C121.455 45.1063 121.339 45.4817 121.107 45.748C120.582 46.3897 120.008 46.9164 119.385 47.328C118.763 47.7397 118.048 47.9455 117.243 47.9455C114.752 47.9455 113.507 46.2081 113.507 42.7333C113.507 42.2005 113.525 41.6617 113.562 41.1169H112.848C112.481 41.1169 112.231 41.0503 112.097 40.9171C111.975 40.784 111.914 40.5721 111.914 40.2815C111.914 39.6035 112.188 39.2645 112.738 39.2645H113.782C113.989 37.9327 114.307 36.7159 114.734 35.6141C115.161 34.5123 115.674 33.6345 116.272 32.9807C116.883 32.3269 117.536 32 118.232 32C118.744 32 119.147 32.224 119.44 32.672C119.733 33.1199 119.88 33.6829 119.88 34.361C119.88 36.2376 119.086 37.8721 117.499 39.2645H119.55C119.745 39.2645 119.886 39.3069 119.971 39.3916C120.057 39.4764 120.099 39.6338 120.099 39.8638C120.099 40.6992 119.41 41.1169 118.03 41.1169H115.796C115.772 41.7223 115.759 42.1945 115.759 42.5335C115.759 43.7927 115.906 44.6765 116.199 45.185C116.504 45.6935 116.98 45.9478 117.627 45.9478C118.152 45.9478 118.616 45.7904 119.019 45.4756C119.422 45.1608 119.898 44.6886 120.447 44.059C120.594 43.8895 120.759 43.8048 120.942 43.8048ZM117.737 33.7435C117.554 33.7435 117.346 33.9735 117.115 34.4336C116.895 34.8816 116.681 35.5112 116.474 36.3224C116.278 37.1215 116.113 38.0114 115.979 38.9921C116.699 38.3746 117.237 37.6845 117.591 36.9217C117.957 36.1468 118.14 35.4446 118.14 34.815C118.14 34.1006 118.006 33.7435 117.737 33.7435ZM121.264 47.9455C120.8 47.9455 120.47 47.7034 120.275 47.2191C120.092 46.7348 120 45.9599 120 44.8944C120 43.3205 120.226 41.8252 120.678 40.4086C120.788 40.0575 120.965 39.8033 121.209 39.6459C121.465 39.4764 121.819 39.3916 122.271 39.3916C122.515 39.3916 122.686 39.4219 122.784 39.4824C122.881 39.5429 122.93 39.658 122.93 39.8275C122.93 40.0212 122.839 40.4571 122.655 41.1351C122.533 41.6194 122.436 42.0431 122.362 42.4064C122.289 42.7696 122.228 43.2176 122.179 43.7503C122.582 42.709 123.034 41.8615 123.534 41.2077C124.035 40.5539 124.523 40.0878 124.999 39.8093C125.488 39.5308 125.933 39.3916 126.336 39.3916C127.13 39.3916 127.527 39.7851 127.527 40.5721C127.527 40.7295 127.472 41.1109 127.362 41.7162C127.264 42.2005 127.215 42.5032 127.215 42.6243C127.215 43.048 127.368 43.2599 127.673 43.2599C128.015 43.2599 128.454 42.9936 128.992 42.4608C129.15 42.3034 129.315 42.2247 129.486 42.2247C129.645 42.2247 129.767 42.2974 129.852 42.4427C129.95 42.5759 129.999 42.7575 129.999 42.9875C129.999 43.4355 129.877 43.7866 129.632 44.0409C129.291 44.392 128.888 44.6947 128.424 44.9489C127.972 45.1911 127.49 45.3121 126.977 45.3121C126.33 45.3121 125.836 45.1487 125.494 44.8218C125.164 44.4949 124.999 44.053 124.999 43.496C124.999 43.3144 125.018 43.1328 125.054 42.9512C125.079 42.709 125.091 42.5456 125.091 42.4608C125.091 42.2671 125.024 42.1703 124.89 42.1703C124.706 42.1703 124.462 42.3761 124.157 42.7877C123.864 43.1873 123.571 43.72 123.278 44.3859C122.985 45.0518 122.747 45.7541 122.564 46.4926C122.43 47.0617 122.271 47.4491 122.088 47.6549C121.917 47.8487 121.642 47.9455 121.264 47.9455ZM136.464 43.8048C136.623 43.8048 136.745 43.8774 136.831 44.0227C136.928 44.168 136.977 44.3678 136.977 44.622C136.977 45.1063 136.861 45.4817 136.629 45.748C136.177 46.2929 135.537 46.7953 134.706 47.2554C133.888 47.7155 133.009 47.9455 132.069 47.9455C130.788 47.9455 129.793 47.6005 129.084 46.9103C128.376 46.2202 128.022 45.2758 128.022 44.0772C128.022 43.2418 128.199 42.4669 128.553 41.7526C128.907 41.0261 129.396 40.451 130.018 40.0272C130.653 39.6035 131.367 39.3916 132.161 39.3916C132.869 39.3916 133.437 39.6035 133.864 40.0272C134.291 40.4389 134.505 41.0019 134.505 41.7162C134.505 42.5516 134.2 43.272 133.589 43.8774C132.991 44.4707 131.972 44.9429 130.531 45.294C130.836 45.8509 131.416 46.1294 132.271 46.1294C132.82 46.1294 133.443 45.9417 134.139 45.5664C134.847 45.179 135.457 44.6765 135.97 44.059C136.116 43.8895 136.281 43.8048 136.464 43.8048ZM131.85 41.1714C131.398 41.1714 131.013 41.4317 130.696 41.9523C130.391 42.4729 130.238 43.1025 130.238 43.8411V43.8774C130.958 43.7079 131.526 43.4537 131.941 43.1146C132.356 42.7756 132.564 42.3821 132.564 41.9342C132.564 41.7041 132.497 41.5225 132.362 41.3893C132.24 41.244 132.069 41.1714 131.85 41.1714ZM143.653 43.8048C143.812 43.8048 143.934 43.8774 144.02 44.0227C144.117 44.168 144.166 44.3678 144.166 44.622C144.166 45.1063 144.05 45.4817 143.818 45.748C143.367 46.2929 142.726 46.7953 141.895 47.2554C141.077 47.7155 140.199 47.9455 139.258 47.9455C137.977 47.9455 136.982 47.6005 136.274 46.9103C135.565 46.2202 135.211 45.2758 135.211 44.0772C135.211 43.2418 135.388 42.4669 135.743 41.7526C136.097 41.0261 136.585 40.451 137.208 40.0272C137.842 39.6035 138.557 39.3916 139.35 39.3916C140.058 39.3916 140.626 39.6035 141.053 40.0272C141.48 40.4389 141.694 41.0019 141.694 41.7162C141.694 42.5516 141.389 43.272 140.778 43.8774C140.18 44.4707 139.161 44.9429 137.72 45.294C138.025 45.8509 138.605 46.1294 139.46 46.1294C140.009 46.1294 140.632 45.9417 141.328 45.5664C142.036 45.179 142.646 44.6765 143.159 44.059C143.305 43.8895 143.47 43.8048 143.653 43.8048ZM139.039 41.1714C138.587 41.1714 138.202 41.4317 137.885 41.9523C137.58 42.4729 137.427 43.1025 137.427 43.8411V43.8774C138.148 43.7079 138.715 43.4537 139.13 43.1146C139.545 42.7756 139.753 42.3821 139.753 41.9342C139.753 41.7041 139.686 41.5225 139.551 41.3893C139.429 41.244 139.258 41.1714 139.039 41.1714ZM145.697 41.1169C145.672 41.7223 145.66 42.1945 145.66 42.5335C145.66 43.4052 145.703 44.0893 145.788 44.5857C145.886 45.07 146.038 45.4211 146.246 45.639C146.466 45.8449 146.765 45.9478 147.143 45.9478C147.339 45.9478 147.571 45.8872 147.839 45.7662C148.108 45.6451 148.352 45.4877 148.572 45.294C148.706 45.1729 148.84 45.1124 148.975 45.1124C149.121 45.1124 149.237 45.1971 149.322 45.3666C149.42 45.524 149.469 45.7177 149.469 45.9478C149.469 46.1778 149.42 46.4018 149.322 46.6197C149.237 46.8377 149.103 47.0193 148.92 47.1646C148.285 47.6852 147.564 47.9455 146.759 47.9455C145.599 47.9455 144.75 47.4673 144.213 46.5108C143.676 45.5422 143.408 44.283 143.408 42.7333C143.408 42.2005 143.426 41.6617 143.463 41.1169H142.748C142.382 41.1169 142.132 41.0503 141.998 40.9171C141.875 40.784 141.814 40.5721 141.814 40.2815C141.814 39.6035 142.089 39.2645 142.638 39.2645H143.682C143.89 37.9327 144.207 36.7159 144.634 35.6141C145.062 34.5123 145.575 33.6345 146.173 32.9807C146.783 32.3269 147.436 32 148.132 32C148.645 32 149.048 32.224 149.341 32.672C149.634 33.1199 149.78 33.6829 149.78 34.361C149.78 36.2376 148.987 37.8721 147.4 39.2645H149.451C149.646 39.2645 149.786 39.3069 149.872 39.3916C149.957 39.4764 150 39.6338 150 39.8638C150 40.6992 149.31 41.1169 147.931 41.1169H145.697ZM147.638 33.7435C147.455 33.7435 147.247 33.9735 147.015 34.4336C146.795 34.8816 146.582 35.5112 146.374 36.3224C146.179 37.1215 146.014 38.0114 145.88 38.9921C146.6 38.3746 147.137 37.6845 147.491 36.9217C147.857 36.1468 148.041 35.4446 148.041 34.815C148.041 34.1006 147.906 33.7435 147.638 33.7435Z" fill="#2F2105"/>
<path d="M427.802 45.21H422.33L421.322 48H419.594L424.13 35.526H426.02L430.538 48H428.81L427.802 45.21ZM427.334 43.878L425.066 37.542L422.798 43.878H427.334ZM434.153 39.972C434.489 39.384 434.981 38.904 435.629 38.532C436.277 38.16 437.015 37.974 437.843 37.974C438.731 37.974 439.529 38.184 440.237 38.604C440.945 39.024 441.503 39.618 441.911 40.386C442.319 41.142 442.523 42.024 442.523 43.032C442.523 44.028 442.319 44.916 441.911 45.696C441.503 46.476 440.939 47.082 440.219 47.514C439.511 47.946 438.719 48.162 437.843 48.162C436.991 48.162 436.241 47.976 435.593 47.604C434.957 47.232 434.477 46.758 434.153 46.182V48H432.515V34.68H434.153V39.972ZM440.849 43.032C440.849 42.288 440.699 41.64 440.399 41.088C440.099 40.536 439.691 40.116 439.175 39.828C438.671 39.54 438.113 39.396 437.501 39.396C436.901 39.396 436.343 39.546 435.827 39.846C435.323 40.134 434.915 40.56 434.603 41.124C434.303 41.676 434.153 42.318 434.153 43.05C434.153 43.794 434.303 44.448 434.603 45.012C434.915 45.564 435.323 45.99 435.827 46.29C436.343 46.578 436.901 46.722 437.501 46.722C438.113 46.722 438.671 46.578 439.175 46.29C439.691 45.99 440.099 45.564 440.399 45.012C440.699 44.448 440.849 43.788 440.849 43.032ZM448.981 48.162C448.057 48.162 447.217 47.952 446.461 47.532C445.717 47.112 445.129 46.518 444.697 45.75C444.277 44.97 444.067 44.07 444.067 43.05C444.067 42.042 444.283 41.154 444.715 40.386C445.159 39.606 445.759 39.012 446.515 38.604C447.271 38.184 448.117 37.974 449.053 37.974C449.989 37.974 450.835 38.184 451.591 38.604C452.347 39.012 452.941 39.6 453.373 40.368C453.817 41.136 454.039 42.03 454.039 43.05C454.039 44.07 453.811 44.97 453.355 45.75C452.911 46.518 452.305 47.112 451.537 47.532C450.769 47.952 449.917 48.162 448.981 48.162ZM448.981 46.722C449.569 46.722 450.121 46.584 450.637 46.308C451.153 46.032 451.567 45.618 451.879 45.066C452.203 44.514 452.365 43.842 452.365 43.05C452.365 42.258 452.209 41.586 451.897 41.034C451.585 40.482 451.177 40.074 450.673 39.81C450.169 39.534 449.623 39.396 449.035 39.396C448.435 39.396 447.883 39.534 447.379 39.81C446.887 40.074 446.491 40.482 446.191 41.034C445.891 41.586 445.741 42.258 445.741 43.05C445.741 43.854 445.885 44.532 446.173 45.084C446.473 45.636 446.869 46.05 447.361 46.326C447.853 46.59 448.393 46.722 448.981 46.722ZM464.941 38.136V48H463.303V46.542C462.991 47.046 462.553 47.442 461.989 47.73C461.437 48.006 460.825 48.144 460.153 48.144C459.385 48.144 458.695 47.988 458.083 47.676C457.471 47.352 456.985 46.872 456.625 46.236C456.277 45.6 456.103 44.826 456.103 43.914V38.136H457.723V43.698C457.723 44.67 457.969 45.42 458.461 45.948C458.953 46.464 459.625 46.722 460.477 46.722C461.353 46.722 462.043 46.452 462.547 45.912C463.051 45.372 463.303 44.586 463.303 43.554V38.136H464.941ZM469.704 39.486V45.3C469.704 45.78 469.806 46.122 470.01 46.326C470.214 46.518 470.568 46.614 471.072 46.614H472.278V48H470.802C469.89 48 469.206 47.79 468.75 47.37C468.294 46.95 468.066 46.26 468.066 45.3V39.486H466.788V38.136H468.066V35.652H469.704V38.136H472.278V39.486H469.704ZM487.81 38.136V48H486.172V46.542C485.86 47.046 485.422 47.442 484.858 47.73C484.306 48.006 483.694 48.144 483.022 48.144C482.254 48.144 481.564 47.988 480.952 47.676C480.34 47.352 479.854 46.872 479.494 46.236C479.146 45.6 478.972 44.826 478.972 43.914V38.136H480.592V43.698C480.592 44.67 480.838 45.42 481.33 45.948C481.822 46.464 482.494 46.722 483.346 46.722C484.222 46.722 484.912 46.452 485.416 45.912C485.92 45.372 486.172 44.586 486.172 43.554V38.136H487.81ZM494.067 48.162C493.311 48.162 492.633 48.036 492.033 47.784C491.433 47.52 490.959 47.16 490.611 46.704C490.263 46.236 490.071 45.702 490.035 45.102H491.727C491.775 45.594 492.003 45.996 492.411 46.308C492.831 46.62 493.377 46.776 494.049 46.776C494.673 46.776 495.165 46.638 495.525 46.362C495.885 46.086 496.065 45.738 496.065 45.318C496.065 44.886 495.873 44.568 495.489 44.364C495.105 44.148 494.511 43.938 493.707 43.734C492.975 43.542 492.375 43.35 491.907 43.158C491.451 42.954 491.055 42.66 490.719 42.276C490.395 41.88 490.233 41.364 490.233 40.728C490.233 40.224 490.383 39.762 490.683 39.342C490.983 38.922 491.409 38.592 491.961 38.352C492.513 38.1 493.143 37.974 493.851 37.974C494.943 37.974 495.825 38.25 496.497 38.802C497.169 39.354 497.529 40.11 497.577 41.07H495.939C495.903 40.554 495.693 40.14 495.309 39.828C494.937 39.516 494.433 39.36 493.797 39.36C493.209 39.36 492.741 39.486 492.393 39.738C492.045 39.99 491.871 40.32 491.871 40.728C491.871 41.052 491.973 41.322 492.177 41.538C492.393 41.742 492.657 41.91 492.969 42.042C493.293 42.162 493.737 42.3 494.301 42.456C495.009 42.648 495.585 42.84 496.029 43.032C496.473 43.212 496.851 43.488 497.163 43.86C497.487 44.232 497.655 44.718 497.667 45.318C497.667 45.858 497.517 46.344 497.217 46.776C496.917 47.208 496.491 47.55 495.939 47.802C495.399 48.042 494.775 48.162 494.067 48.162Z" fill="#FF912B"/>
<path d="M538.074 48.126C536.91 48.126 535.848 47.856 534.888 47.316C533.928 46.764 533.166 46.002 532.602 45.03C532.05 44.046 531.774 42.942 531.774 41.718C531.774 40.494 532.05 39.396 532.602 38.424C533.166 37.44 533.928 36.678 534.888 36.138C535.848 35.586 536.91 35.31 538.074 35.31C539.25 35.31 540.318 35.586 541.278 36.138C542.238 36.678 542.994 37.434 543.546 38.406C544.098 39.378 544.374 40.482 544.374 41.718C544.374 42.954 544.098 44.058 543.546 45.03C542.994 46.002 542.238 46.764 541.278 47.316C540.318 47.856 539.25 48.126 538.074 48.126ZM538.074 46.704C538.95 46.704 539.736 46.5 540.432 46.092C541.14 45.684 541.692 45.102 542.088 44.346C542.496 43.59 542.7 42.714 542.7 41.718C542.7 40.71 542.496 39.834 542.088 39.09C541.692 38.334 541.146 37.752 540.45 37.344C539.754 36.936 538.962 36.732 538.074 36.732C537.186 36.732 536.394 36.936 535.698 37.344C535.002 37.752 534.45 38.334 534.042 39.09C533.646 39.834 533.448 40.71 533.448 41.718C533.448 42.714 533.646 43.59 534.042 44.346C534.45 45.102 535.002 45.684 535.698 46.092C536.406 46.5 537.198 46.704 538.074 46.704ZM555.284 38.136V48H553.646V46.542C553.334 47.046 552.896 47.442 552.332 47.73C551.78 48.006 551.168 48.144 550.496 48.144C549.728 48.144 549.038 47.988 548.426 47.676C547.814 47.352 547.328 46.872 546.968 46.236C546.62 45.6 546.446 44.826 546.446 43.914V38.136H548.066V43.698C548.066 44.67 548.312 45.42 548.804 45.948C549.296 46.464 549.968 46.722 550.82 46.722C551.696 46.722 552.386 46.452 552.89 45.912C553.394 45.372 553.646 44.586 553.646 43.554V38.136H555.284ZM559.688 39.738C559.976 39.174 560.384 38.736 560.912 38.424C561.452 38.112 562.106 37.956 562.874 37.956V39.648H562.442C560.606 39.648 559.688 40.644 559.688 42.636V48H558.05V38.136H559.688V39.738ZM577.952 39.126C577.952 40.17 577.592 41.04 576.872 41.736C576.164 42.42 575.078 42.762 573.614 42.762H571.202V48H569.564V35.454H573.614C575.03 35.454 576.104 35.796 576.836 36.48C577.58 37.164 577.952 38.046 577.952 39.126ZM573.614 41.412C574.526 41.412 575.198 41.214 575.63 40.818C576.062 40.422 576.278 39.858 576.278 39.126C576.278 37.578 575.39 36.804 573.614 36.804H571.202V41.412H573.614ZM581.626 39.738C581.914 39.174 582.322 38.736 582.85 38.424C583.39 38.112 584.044 37.956 584.812 37.956V39.648H584.38C582.544 39.648 581.626 40.644 581.626 42.636V48H579.988V38.136H581.626V39.738ZM591.004 48.162C590.08 48.162 589.24 47.952 588.484 47.532C587.74 47.112 587.152 46.518 586.72 45.75C586.3 44.97 586.09 44.07 586.09 43.05C586.09 42.042 586.306 41.154 586.738 40.386C587.182 39.606 587.782 39.012 588.538 38.604C589.294 38.184 590.14 37.974 591.076 37.974C592.012 37.974 592.858 38.184 593.614 38.604C594.37 39.012 594.964 39.6 595.396 40.368C595.84 41.136 596.062 42.03 596.062 43.05C596.062 44.07 595.834 44.97 595.378 45.75C594.934 46.518 594.328 47.112 593.56 47.532C592.792 47.952 591.94 48.162 591.004 48.162ZM591.004 46.722C591.592 46.722 592.144 46.584 592.66 46.308C593.176 46.032 593.59 45.618 593.902 45.066C594.226 44.514 594.388 43.842 594.388 43.05C594.388 42.258 594.232 41.586 593.92 41.034C593.608 40.482 593.2 40.074 592.696 39.81C592.192 39.534 591.646 39.396 591.058 39.396C590.458 39.396 589.906 39.534 589.402 39.81C588.91 40.074 588.514 40.482 588.214 41.034C587.914 41.586 587.764 42.258 587.764 43.05C587.764 43.854 587.908 44.532 588.196 45.084C588.496 45.636 588.892 46.05 589.384 46.326C589.876 46.59 590.416 46.722 591.004 46.722ZM597.604 43.032C597.604 42.024 597.808 41.142 598.216 40.386C598.624 39.618 599.182 39.024 599.89 38.604C600.61 38.184 601.414 37.974 602.302 37.974C603.07 37.974 603.784 38.154 604.444 38.514C605.104 38.862 605.608 39.324 605.956 39.9V34.68H607.612V48H605.956V46.146C605.632 46.734 605.152 47.22 604.516 47.604C603.88 47.976 603.136 48.162 602.284 48.162C601.408 48.162 600.61 47.946 599.89 47.514C599.182 47.082 598.624 46.476 598.216 45.696C597.808 44.916 597.604 44.028 597.604 43.032ZM605.956 43.05C605.956 42.306 605.806 41.658 605.506 41.106C605.206 40.554 604.798 40.134 604.282 39.846C603.778 39.546 603.22 39.396 602.608 39.396C601.996 39.396 601.438 39.54 600.934 39.828C600.43 40.116 600.028 40.536 599.728 41.088C599.428 41.64 599.278 42.288 599.278 43.032C599.278 43.788 599.428 44.448 599.728 45.012C600.028 45.564 600.43 45.99 600.934 46.29C601.438 46.578 601.996 46.722 602.608 46.722C603.22 46.722 603.778 46.578 604.282 46.29C604.798 45.99 605.206 45.564 605.506 45.012C605.806 44.448 605.956 43.794 605.956 43.05ZM619.128 38.136V48H617.49V46.542C617.178 47.046 616.74 47.442 616.176 47.73C615.624 48.006 615.012 48.144 614.34 48.144C613.572 48.144 612.882 47.988 612.27 47.676C611.658 47.352 611.172 46.872 610.812 46.236C610.464 45.6 610.29 44.826 610.29 43.914V38.136H611.91V43.698C611.91 44.67 612.156 45.42 612.648 45.948C613.14 46.464 613.812 46.722 614.664 46.722C615.54 46.722 616.23 46.452 616.734 45.912C617.238 45.372 617.49 44.586 617.49 43.554V38.136H619.128ZM621.282 43.05C621.282 42.03 621.486 41.142 621.894 40.386C622.302 39.618 622.866 39.024 623.586 38.604C624.318 38.184 625.152 37.974 626.088 37.974C627.3 37.974 628.296 38.268 629.076 38.856C629.868 39.444 630.39 40.26 630.642 41.304H628.878C628.71 40.704 628.38 40.23 627.888 39.882C627.408 39.534 626.808 39.36 626.088 39.36C625.152 39.36 624.396 39.684 623.82 40.332C623.244 40.968 622.956 41.874 622.956 43.05C622.956 44.238 623.244 45.156 623.82 45.804C624.396 46.452 625.152 46.776 626.088 46.776C626.808 46.776 627.408 46.608 627.888 46.272C628.368 45.936 628.698 45.456 628.878 44.832H630.642C630.378 45.84 629.85 46.65 629.058 47.262C628.266 47.862 627.276 48.162 626.088 48.162C625.152 48.162 624.318 47.952 623.586 47.532C622.866 47.112 622.302 46.518 621.894 45.75C621.486 44.982 621.282 44.082 621.282 43.05ZM634.825 39.486V45.3C634.825 45.78 634.927 46.122 635.131 46.326C635.335 46.518 635.689 46.614 636.193 46.614H637.399V48H635.923C635.011 48 634.327 47.79 633.871 47.37C633.415 46.95 633.187 46.26 633.187 45.3V39.486H631.909V38.136H633.187V35.652H634.825V38.136H637.399V39.486H634.825Z" fill="black"/>
<path d="M675.292 35.454C676.66 35.454 677.842 35.712 678.838 36.228C679.846 36.732 680.614 37.458 681.142 38.406C681.682 39.354 681.952 40.47 681.952 41.754C681.952 43.038 681.682 44.154 681.142 45.102C680.614 46.038 679.846 46.758 678.838 47.262C677.842 47.754 676.66 48 675.292 48H671.386V35.454H675.292ZM675.292 46.65C676.912 46.65 678.148 46.224 679 45.372C679.852 44.508 680.278 43.302 680.278 41.754C680.278 40.194 679.846 38.976 678.982 38.1C678.13 37.224 676.9 36.786 675.292 36.786H673.024V46.65H675.292ZM693.113 42.69C693.113 43.002 693.095 43.332 693.059 43.68H685.175C685.235 44.652 685.565 45.414 686.165 45.966C686.777 46.506 687.515 46.776 688.379 46.776C689.087 46.776 689.675 46.614 690.143 46.29C690.623 45.954 690.959 45.51 691.151 44.958H692.915C692.651 45.906 692.123 46.68 691.331 47.28C690.539 47.868 689.555 48.162 688.379 48.162C687.443 48.162 686.603 47.952 685.859 47.532C685.127 47.112 684.551 46.518 684.131 45.75C683.711 44.97 683.501 44.07 683.501 43.05C683.501 42.03 683.705 41.136 684.113 40.368C684.521 39.6 685.091 39.012 685.823 38.604C686.567 38.184 687.419 37.974 688.379 37.974C689.315 37.974 690.143 38.178 690.863 38.586C691.583 38.994 692.135 39.558 692.519 40.278C692.915 40.986 693.113 41.79 693.113 42.69ZM691.421 42.348C691.421 41.724 691.283 41.19 691.007 40.746C690.731 40.29 690.353 39.948 689.873 39.72C689.405 39.48 688.883 39.36 688.307 39.36C687.479 39.36 686.771 39.624 686.183 40.152C685.607 40.68 685.277 41.412 685.193 42.348H691.421ZM696.913 34.68V48H695.275V34.68H696.913ZM700.55 36.534C700.238 36.534 699.974 36.426 699.758 36.21C699.542 35.994 699.434 35.73 699.434 35.418C699.434 35.106 699.542 34.842 699.758 34.626C699.974 34.41 700.238 34.302 700.55 34.302C700.85 34.302 701.102 34.41 701.306 34.626C701.522 34.842 701.63 35.106 701.63 35.418C701.63 35.73 701.522 35.994 701.306 36.21C701.102 36.426 700.85 36.534 700.55 36.534ZM701.342 38.136V48H699.704V38.136H701.342ZM707.806 46.488L710.866 38.136H712.612L708.742 48H706.834L702.964 38.136H704.728L707.806 46.488ZM723.224 42.69C723.224 43.002 723.206 43.332 723.17 43.68H715.286C715.346 44.652 715.676 45.414 716.276 45.966C716.888 46.506 717.626 46.776 718.49 46.776C719.198 46.776 719.786 46.614 720.254 46.29C720.734 45.954 721.07 45.51 721.262 44.958H723.026C722.762 45.906 722.234 46.68 721.442 47.28C720.65 47.868 719.666 48.162 718.49 48.162C717.554 48.162 716.714 47.952 715.97 47.532C715.238 47.112 714.662 46.518 714.242 45.75C713.822 44.97 713.612 44.07 713.612 43.05C713.612 42.03 713.816 41.136 714.224 40.368C714.632 39.6 715.202 39.012 715.934 38.604C716.678 38.184 717.53 37.974 718.49 37.974C719.426 37.974 720.254 38.178 720.974 38.586C721.694 38.994 722.246 39.558 722.63 40.278C723.026 40.986 723.224 41.79 723.224 42.69ZM721.532 42.348C721.532 41.724 721.394 41.19 721.118 40.746C720.842 40.29 720.464 39.948 719.984 39.72C719.516 39.48 718.994 39.36 718.418 39.36C717.59 39.36 716.882 39.624 716.294 40.152C715.718 40.68 715.388 41.412 715.304 42.348H721.532ZM727.024 39.738C727.312 39.174 727.72 38.736 728.248 38.424C728.788 38.112 729.442 37.956 730.21 37.956V39.648H729.778C727.942 39.648 727.024 40.644 727.024 42.636V48H725.386V38.136H727.024V39.738ZM740.597 38.136L734.657 52.644H732.965L734.909 47.892L730.931 38.136H732.749L735.845 46.128L738.905 38.136H740.597Z" fill="black"/>
<path d="M1135.67 35.3333H1154.05C1154.43 35.3333 1154.79 35.4114 1155.13 35.5625C1155.48 35.7136 1155.78 35.9344 1156.03 36.2107C1156.28 36.4869 1156.47 36.8125 1156.59 37.1664C1156.7 37.5203 1156.74 37.8946 1156.71 38.2653L1155.91 46.2653C1155.84 46.9233 1155.53 47.5334 1155.04 47.9772C1154.55 48.4209 1153.91 48.6666 1153.25 48.6667H1140.52C1139.9 48.6669 1139.31 48.4534 1138.83 48.0625C1138.35 47.6716 1138.02 47.1274 1137.9 46.5227L1135.67 35.3333Z" stroke="#1D1D1D" stroke-width="2" stroke-linejoin="round"/>
<path d="M1150.33 54H1153M1135.67 35.3333L1134.59 31.0093C1134.51 30.721 1134.35 30.4651 1134.11 30.2822C1133.88 30.0993 1133.59 30 1133.29 30H1131.67L1135.67 35.3333ZM1139.67 54H1142.33H1139.67Z" stroke="#1D1D1D" stroke-width="2" stroke-linecap="round" stroke-linejoin="round"/>
<circle cx="1156" cy="35" r="4.5" fill="#FF912B" stroke="white"/>
<g filter="url(#filter0_d_6_63)">
<rect x="883" y="22" width="222" height="40" rx="20" fill="white"/>
<path d="M916 51L911.514 46.506L916 51ZM914 40.5C914 42.7543 913.104 44.9163 911.51 46.5104C909.916 48.1045 907.754 49 905.5 49C903.246 49 901.084 48.1045 899.49 46.5104C897.896 44.9163 897 42.7543 897 40.5C897 38.2457 897.896 36.0837 899.49 34.4896C901.084 32.8955 903.246 32 905.5 32C907.754 32 909.916 32.8955 911.51 34.4896C913.104 36.0837 914 38.2457 914 40.5V40.5Z" stroke="#1D1D1D" stroke-width="2" stroke-linecap="round"/>
<path d="M935.516 41.812C935.516 40.996 935.7 40.264 936.068 39.616C936.436 38.96 936.936 38.448 937.568 38.08C938.208 37.712 938.916 37.528 939.692 37.528C940.604 37.528 941.4 37.748 942.08 38.188C942.76 38.628 943.256 39.252 943.568 40.06H942.26C942.028 39.556 941.692 39.168 941.252 38.896C940.82 38.624 940.3 38.488 939.692 38.488C939.108 38.488 938.584 38.624 938.12 38.896C937.656 39.168 937.292 39.556 937.028 40.06C936.764 40.556 936.632 41.14 936.632 41.812C936.632 42.476 936.764 43.06 937.028 43.564C937.292 44.06 937.656 44.444 938.12 44.716C938.584 44.988 939.108 45.124 939.692 45.124C940.3 45.124 940.82 44.992 941.252 44.728C941.692 44.456 942.028 44.068 942.26 43.564H943.568C943.256 44.364 942.76 44.984 942.08 45.424C941.4 45.856 940.604 46.072 939.692 46.072C938.916 46.072 938.208 45.892 937.568 45.532C936.936 45.164 936.436 44.656 936.068 44.008C935.7 43.36 935.516 42.628 935.516 41.812ZM944.786 42.688C944.786 42.016 944.922 41.428 945.194 40.924C945.466 40.412 945.838 40.016 946.31 39.736C946.79 39.456 947.322 39.316 947.906 39.316C948.482 39.316 948.982 39.44 949.406 39.688C949.83 39.936 950.146 40.248 950.354 40.624V39.424H951.458V46H950.354V44.776C950.138 45.16 949.814 45.48 949.382 45.736C948.958 45.984 948.462 46.108 947.894 46.108C947.31 46.108 946.782 45.964 946.31 45.676C945.838 45.388 945.466 44.984 945.194 44.464C944.922 43.944 944.786 43.352 944.786 42.688ZM950.354 42.7C950.354 42.204 950.254 41.772 950.054 41.404C949.854 41.036 949.582 40.756 949.238 40.564C948.902 40.364 948.53 40.264 948.122 40.264C947.714 40.264 947.342 40.36 947.006 40.552C946.67 40.744 946.402 41.024 946.202 41.392C946.002 41.76 945.902 42.192 945.902 42.688C945.902 43.192 946.002 43.632 946.202 44.008C946.402 44.376 946.67 44.66 947.006 44.86C947.342 45.052 947.714 45.148 948.122 45.148C948.53 45.148 948.902 45.052 949.238 44.86C949.582 44.66 949.854 44.376 950.054 44.008C950.254 43.632 950.354 43.196 950.354 42.7ZM954.395 40.636C954.611 40.26 954.931 39.948 955.355 39.7C955.787 39.444 956.287 39.316 956.855 39.316C957.439 39.316 957.967 39.456 958.439 39.736C958.919 40.016 959.295 40.412 959.567 40.924C959.839 41.428 959.975 42.016 959.975 42.688C959.975 43.352 959.839 43.944 959.567 44.464C959.295 44.984 958.919 45.388 958.439 45.676C957.967 45.964 957.439 46.108 956.855 46.108C956.295 46.108 955.799 45.984 955.367 45.736C954.943 45.48 954.619 45.164 954.395 44.788V49.12H953.303V39.424H954.395V40.636ZM958.859 42.688C958.859 42.192 958.759 41.76 958.559 41.392C958.359 41.024 958.087 40.744 957.743 40.552C957.407 40.36 957.035 40.264 956.627 40.264C956.227 40.264 955.855 40.364 955.511 40.564C955.175 40.756 954.903 41.04 954.695 41.416C954.495 41.784 954.395 42.212 954.395 42.7C954.395 43.196 954.495 43.632 954.695 44.008C954.903 44.376 955.175 44.66 955.511 44.86C955.855 45.052 956.227 45.148 956.627 45.148C957.035 45.148 957.407 45.052 957.743 44.86C958.087 44.66 958.359 44.376 958.559 44.008C958.759 43.632 958.859 43.192 958.859 42.688ZM962.504 40.636C962.72 40.26 963.04 39.948 963.464 39.7C963.896 39.444 964.396 39.316 964.964 39.316C965.548 39.316 966.076 39.456 966.548 39.736C967.028 40.016 967.404 40.412 967.676 40.924C967.948 41.428 968.084 42.016 968.084 42.688C968.084 43.352 967.948 43.944 967.676 44.464C967.404 44.984 967.028 45.388 966.548 45.676C966.076 45.964 965.548 46.108 964.964 46.108C964.404 46.108 963.908 45.984 963.476 45.736C963.052 45.48 962.728 45.164 962.504 44.788V49.12H961.412V39.424H962.504V40.636ZM966.968 42.688C966.968 42.192 966.868 41.76 966.668 41.392C966.468 41.024 966.196 40.744 965.852 40.552C965.516 40.36 965.144 40.264 964.736 40.264C964.336 40.264 963.964 40.364 963.62 40.564C963.284 40.756 963.012 41.04 962.804 41.416C962.604 41.784 962.504 42.212 962.504 42.7C962.504 43.196 962.604 43.632 962.804 44.008C963.012 44.376 963.284 44.66 963.62 44.86C963.964 45.052 964.336 45.148 964.736 45.148C965.144 45.148 965.516 45.052 965.852 44.86C966.196 44.66 966.468 44.376 966.668 44.008C966.868 43.632 966.968 43.192 966.968 42.688ZM975.354 39.424V46H974.262V45.028C974.054 45.364 973.762 45.628 973.386 45.82C973.018 46.004 972.61 46.096 972.162 46.096C971.65 46.096 971.19 45.992 970.782 45.784C970.374 45.568 970.05 45.248 969.81 44.824C969.578 44.4 969.462 43.884 969.462 43.276V39.424H970.542V43.132C970.542 43.78 970.706 44.28 971.034 44.632C971.362 44.976 971.81 45.148 972.378 45.148C972.962 45.148 973.422 44.968 973.758 44.608C974.094 44.248 974.262 43.724 974.262 43.036V39.424H975.354ZM976.789 42.7C976.789 42.02 976.925 41.428 977.197 40.924C977.469 40.412 977.845 40.016 978.325 39.736C978.813 39.456 979.369 39.316 979.993 39.316C980.801 39.316 981.465 39.512 981.985 39.904C982.513 40.296 982.861 40.84 983.029 41.536H981.853C981.741 41.136 981.521 40.82 981.193 40.588C980.873 40.356 980.473 40.24 979.993 40.24C979.369 40.24 978.865 40.456 978.481 40.888C978.097 41.312 977.905 41.916 977.905 42.7C977.905 43.492 978.097 44.104 978.481 44.536C978.865 44.968 979.369 45.184 979.993 45.184C980.473 45.184 980.873 45.072 981.193 44.848C981.513 44.624 981.733 44.304 981.853 43.888H983.029C982.853 44.56 982.501 45.1 981.973 45.508C981.445 45.908 980.785 46.108 979.993 46.108C979.369 46.108 978.813 45.968 978.325 45.688C977.845 45.408 977.469 45.012 977.197 44.5C976.925 43.988 976.789 43.388 976.789 42.7ZM984.079 42.7C984.079 42.02 984.215 41.428 984.487 40.924C984.759 40.412 985.135 40.016 985.615 39.736C986.103 39.456 986.659 39.316 987.283 39.316C988.091 39.316 988.755 39.512 989.275 39.904C989.803 40.296 990.151 40.84 990.319 41.536H989.143C989.031 41.136 988.811 40.82 988.483 40.588C988.163 40.356 987.763 40.24 987.283 40.24C986.659 40.24 986.155 40.456 985.771 40.888C985.387 41.312 985.195 41.916 985.195 42.7C985.195 43.492 985.387 44.104 985.771 44.536C986.155 44.968 986.659 45.184 987.283 45.184C987.763 45.184 988.163 45.072 988.483 44.848C988.803 44.624 989.023 44.304 989.143 43.888H990.319C990.143 44.56 989.791 45.1 989.263 45.508C988.735 45.908 988.075 46.108 987.283 46.108C986.659 46.108 986.103 45.968 985.615 45.688C985.135 45.408 984.759 45.012 984.487 44.5C984.215 43.988 984.079 43.388 984.079 42.7ZM992.34 38.356C992.132 38.356 991.956 38.284 991.812 38.14C991.668 37.996 991.596 37.82 991.596 37.612C991.596 37.404 991.668 37.228 991.812 37.084C991.956 36.94 992.132 36.868 992.34 36.868C992.54 36.868 992.708 36.94 992.844 37.084C992.988 37.228 993.06 37.404 993.06 37.612C993.06 37.82 992.988 37.996 992.844 38.14C992.708 38.284 992.54 38.356 992.34 38.356ZM992.868 39.424V46H991.776V39.424H992.868ZM997.933 39.304C998.733 39.304 999.381 39.548 999.877 40.036C1000.37 40.516 1000.62 41.212 1000.62 42.124V46H999.541V42.28C999.541 41.624 999.377 41.124 999.049 40.78C998.721 40.428 998.273 40.252 997.705 40.252C997.129 40.252 996.669 40.432 996.325 40.792C995.989 41.152 995.821 41.676 995.821 42.364V46H994.729V39.424H995.821V40.36C996.037 40.024 996.329 39.764 996.697 39.58C997.073 39.396 997.485 39.304 997.933 39.304ZM1005.27 46.108C1004.66 46.108 1004.1 45.968 1003.59 45.688C1003.1 45.408 1002.7 45.012 1002.42 44.5C1002.14 43.98 1002 43.38 1002 42.7C1002 42.028 1002.14 41.436 1002.43 40.924C1002.72 40.404 1003.12 40.008 1003.63 39.736C1004.13 39.456 1004.7 39.316 1005.32 39.316C1005.94 39.316 1006.51 39.456 1007.01 39.736C1007.52 40.008 1007.91 40.4 1008.2 40.912C1008.5 41.424 1008.64 42.02 1008.64 42.7C1008.64 43.38 1008.49 43.98 1008.19 44.5C1007.89 45.012 1007.49 45.408 1006.98 45.688C1006.46 45.968 1005.9 46.108 1005.27 46.108ZM1005.27 45.148C1005.66 45.148 1006.03 45.056 1006.38 44.872C1006.72 44.688 1007 44.412 1007.2 44.044C1007.42 43.676 1007.53 43.228 1007.53 42.7C1007.53 42.172 1007.42 41.724 1007.22 41.356C1007.01 40.988 1006.74 40.716 1006.4 40.54C1006.06 40.356 1005.7 40.264 1005.31 40.264C1004.91 40.264 1004.54 40.356 1004.2 40.54C1003.88 40.716 1003.61 40.988 1003.41 41.356C1003.21 41.724 1003.11 42.172 1003.11 42.7C1003.11 43.236 1003.21 43.688 1003.4 44.056C1003.6 44.424 1003.86 44.7 1004.19 44.884C1004.52 45.06 1004.88 45.148 1005.27 45.148Z" fill="#929292"/>
</g>
<defs>
<filter id="filter0_d_6_63" x="865" y="0" width="270" height="88" filterUnits="userSpaceOnUse" color-interpolation-filters="sRGB">
<feFlood flood-opacity="0" result="BackgroundImageFix"/>
<feColorMatrix in="SourceAlpha" type="matrix" values="0 0 0 0 0 0 0 0 0 0 0 0 0 0 0 0 0 0 127 0" result="hardAlpha"/>
<feOffset dx="6" dy="2"/>
<feGaussianBlur stdDeviation="12"/>
<feComposite in2="hardAlpha" operator="out"/>
<feColorMatrix type="matrix" values="0 0 0 0 0 0 0 0 0 0 0 0 0 0 0 0 0 0 0.13 0"/>
<feBlend mode="normal" in2="BackgroundImageFix" result="effect1_dropShadow_6_63"/>
<feBlend mode="normal" in="SourceGraphic" in2="effect1_dropShadow_6_63" result="shape"/>
</filter>
</defs>
</svg>
